<svg viewBox="0 0 280 60" xmlns="http://www.w3.org/2000/svg">
  <g transform="translate(0,8) scale(0.44)">
    <line x1="50" y1="50" x2="50" y2="10" stroke="#1D5A8A" stroke-width="5.5" stroke-linecap="round"/>
    <line x1="50" y1="50" x2="90" y2="50" stroke="#1D5A8A" stroke-width="5.5" stroke-linecap="round"/>
    <line x1="50" y1="50" x2="50" y2="90" stroke="#1D5A8A" stroke-width="5.5" stroke-linecap="round"/>
    <line x1="50" y1="50" x2="10" y2="50" stroke="#1D5A8A" stroke-width="5.5" stroke-linecap="round"/>
    <polygon points="56,38 62,44 62,56 56,62 44,62 38,56 38,44 44,38" fill="white" stroke="#1D5A8A" stroke-width="5" stroke-linejoin="miter"/>
    <polygon points="53,46 55,48 55,52 53,54 47,54 45,52 45,48 47,46" fill="#1D5A8A"/>
    <circle cx="50" cy="10" r="7" fill="#1D5A8A"/>
    <circle cx="90" cy="50" r="7" fill="#D48B1A"/>
    <circle cx="50" cy="90" r="7" fill="#B85030"/>
    <circle cx="10" cy="50" r="7" fill="#8094A8"/>
  </g>
  <text x="54" y="38" font-family="Syne, sans-serif" font-weight="800" font-size="27" fill="#1A2535" letter-spacing="-0.5">mandadito<tspan fill="#1D5A8A">z</tspan></text>
</svg>